<svg xmlns="http://www.w3.org/2000/svg" width="19.036" height="17.767" viewBox="0 0 19.036 17.767"><defs><style>.a{fill:#fe8369;}</style></defs><g transform="translate(0 0)"><path class="a" d="M17.085,25.585h-.317V18.922a2.844,2.844,0,0,0-2.855-2.855,2.544,2.544,0,0,0-2.527,2.567,1.568,1.568,0,0,0-1.28,1.558.3.3,0,0,0,.317.317H12.96a.3.3,0,0,0,.317-.317,1.568,1.568,0,0,0-1.255-1.553,1.92,1.92,0,0,1,1.89-1.937,2.207,2.207,0,0,1,2.221,2.221v6.663H6.584a1.568,1.568,0,0,0-1.556-1.269,1.656,1.656,0,0,0-1.269-.635,1.569,1.569,0,0,0-1.4.857,1.885,1.885,0,0,0-.825-.222A1.568,1.568,0,0,0-.017,25.585H-.048A.935.935,0,0,0-1,26.537a.935.935,0,0,0,.952.952H.333l.856,3.395a2.238,2.238,0,0,0,2.157,1.682H3.6l-.412.825a.28.28,0,0,0,.127.412.191.191,0,0,0,.127.032.333.333,0,0,0,.286-.159l.555-1.11h8.8l.539,1.079a.3.3,0,0,0,.286.19c.063,0,.1,0,.127-.063a.334.334,0,0,0,.127-.412l-.4-.795a2.246,2.246,0,0,0,2.079-1.648l.864-3.427h.373a.952.952,0,1,0,0-1.9Zm-4.474-5.711H10.8a.965.965,0,0,1,.92-.635A.924.924,0,0,1,12.611,19.874ZM1.538,24.951A1.066,1.066,0,0,1,2.3,25.3a.287.287,0,0,0,.317.1.307.307,0,0,0,.222-.254.982.982,0,0,1,.952-.825.887.887,0,0,1,.825.476.319.319,0,0,0,.349.159h.1a.924.924,0,0,1,.888.635H.65A.924.924,0,0,1,1.538,24.951Zm13.738,5.774a1.628,1.628,0,0,1-1.555,1.206H3.378a1.628,1.628,0,0,1-1.555-1.206L1,27.489H16.038Zm1.808-3.871H-.048a.3.3,0,0,1-.317-.317.3.3,0,0,1,.317-.317H17.085a.317.317,0,1,1,0,.635Z" transform="translate(1 -16.067)"/><path class="a" d="M297.984,153.393a.3.3,0,0,0,.317-.317v-.159a.317.317,0,1,0-.635,0v.159A.3.3,0,0,0,297.984,153.393Z" transform="translate(-286.562 -147.524)"/><path class="a" d="M297.984,187.718a.318.318,0,0,0,.317-.317v-.349a.317.317,0,1,0-.635,0v.349A.3.3,0,0,0,297.984,187.718Z" transform="translate(-286.562 -180.389)"/><path class="a" d="M297.984,225.927a.3.3,0,0,0,.317-.317v-.159a.317.317,0,1,0-.635,0v.159A.3.3,0,0,0,297.984,225.927Z" transform="translate(-286.562 -217.361)"/><path class="a" d="M332.117,153.393a.3.3,0,0,0,.317-.317v-.159a.317.317,0,0,0-.635,0v.159A.3.3,0,0,0,332.117,153.393Z" transform="translate(-319.426 -147.524)"/><path class="a" d="M331.8,187.4a.3.3,0,0,0,.317.317.318.318,0,0,0,.317-.317v-.349a.317.317,0,0,0-.635,0Z" transform="translate(-319.426 -180.388)"/><path class="a" d="M331.8,225.609a.317.317,0,0,0,.635,0v-.159a.317.317,0,1,0-.635,0Z" transform="translate(-319.426 -217.36)"/><path class="a" d="M366.251,153.393a.3.3,0,0,0,.317-.317v-.159a.317.317,0,1,0-.634,0v.159A.3.3,0,0,0,366.251,153.393Z" transform="translate(-352.291 -147.524)"/><path class="a" d="M365.933,187.4a.3.3,0,0,0,.317.317.318.318,0,0,0,.317-.317v-.349a.317.317,0,0,0-.635,0v.349Z" transform="translate(-352.29 -180.388)"/><path class="a" d="M365.933,225.609a.317.317,0,0,0,.635,0v-.159a.317.317,0,1,0-.635,0Z" transform="translate(-352.29 -217.36)"/></g></svg>