<svg xmlns="http://www.w3.org/2000/svg" width="18.181" height="18.181" viewBox="0 0 18.181 18.181"><defs><style>.a{fill:#f0e3d0;}</style></defs><path class="a" d="M12.5,0H5.682A5.682,5.682,0,0,0,0,5.682V12.5a5.682,5.682,0,0,0,5.682,5.682H12.5A5.682,5.682,0,0,0,18.181,12.5V5.682A5.682,5.682,0,0,0,12.5,0Zm3.977,12.5A3.982,3.982,0,0,1,12.5,16.477H5.682A3.982,3.982,0,0,1,1.7,12.5V5.682A3.982,3.982,0,0,1,5.682,1.7H12.5a3.982,3.982,0,0,1,3.977,3.977Z"/><g transform="translate(4.545 4.545)"><path class="a" d="M132.545,128a4.545,4.545,0,1,0,4.545,4.545A4.546,4.546,0,0,0,132.545,128Zm0,7.386a2.841,2.841,0,1,1,2.841-2.841A2.845,2.845,0,0,1,132.545,135.386Z" transform="translate(-128 -128)"/></g><g transform="translate(13.371 3.599)"><circle class="a" cx="0.606" cy="0.606" r="0.606"/></g></svg>